<svg width="95" height="17" viewBox="0 0 95 17" fill="none" xmlns="http://www.w3.org/2000/svg">
<path d="M23.8187 17C19.4506 17 15.8792 13.5142 15.8792 9.2508V0.536285H19.8352V9.22398C19.8352 11.3691 21.6209 13.112 23.8187 13.112C26.0165 13.112 27.8022 11.3691 27.8022 9.22398V0.536285H31.7583V9.22398C31.7583 13.5142 28.2143 17 23.8187 17Z" fill="#1D45D7"/>
<path d="M37.8572 16.3296H33.9011V4.2634C33.9011 2.25236 35.5769 0.643524 37.6099 0.643524H44.3407V4.50472H37.8572V16.3296Z" fill="#1D45D7"/>
<path d="M61.3187 16.5442H57.3626V7.80284C57.3626 5.63091 55.5769 3.88801 53.3791 3.88801C51.1813 3.88801 49.3956 5.65773 49.3956 7.80284V16.571H45.4396V7.80284C45.4396 3.51262 49.011 0 53.3791 0C57.7473 0 61.3187 3.4858 61.3187 7.80284V16.5442Z" fill="#1D45D7"/>
<path d="M14.011 0.616669H0V4.04885H8.76373L0 13.1119V16.5441H14.011V13.1119H5.24725L14.011 4.04885V0.616669Z" fill="#1D45D7"/>
<path d="M87.0604 17C82.6923 17 79.1208 13.5142 79.1208 9.2508V0.536285H83.0769V9.22398C83.0769 11.3691 84.8626 13.112 87.0604 13.112C89.2582 13.112 91.0439 11.3691 91.0439 9.22398V0.536285H95V9.22398C95 13.5142 91.4285 17 87.0604 17Z" fill="#1D45D7"/>
<path d="M77.2253 0.616669H63.2418V4.04885H71.978L63.2418 13.1119V16.5441H77.2253V13.1119H68.489L77.2253 4.04885V0.616669Z" fill="#1D45D7"/>
</svg>
