<svg width="16" height="19" viewBox="0 0 16 19" fill="none" xmlns="http://www.w3.org/2000/svg">
<path d="M14.3124 11.0543V5.64902C14.3149 4.20408 13.6864 2.81332 12.5562 1.76312C11.4261 0.712927 9.88033 0.0832594 8.23736 0.00378961C7.39399 -0.0236355 6.55295 0.0980161 5.76415 0.361522C4.97535 0.625029 4.25489 1.02502 3.64552 1.53774C3.03616 2.05047 2.55031 2.66548 2.21684 3.34627C1.88336 4.02706 1.70904 4.75974 1.70424 5.50083V11.0402L0.21761 12.8396C0.0916988 12.9934 0.0172451 13.1751 0.0026518 13.364C-0.0119415 13.553 0.0339064 13.7418 0.135022 13.9091C0.236137 14.0764 0.388494 14.2156 0.574898 14.3109C0.761302 14.4062 0.974331 14.4539 1.18994 14.4485H14.8508C15.0636 14.4485 15.2721 14.3967 15.4533 14.2987C15.6344 14.2008 15.7811 14.0607 15.8769 13.8939C15.9727 13.7271 16.0139 13.5402 15.9959 13.3541C15.9779 13.1679 15.9014 12.9898 15.775 12.8396L14.3124 11.0543Z" fill="#1D45D7"/>
<path d="M8.00433 19C9.09165 19 9.97311 18.226 9.97311 17.2711C9.97311 16.3163 9.09165 15.5423 8.00433 15.5423C6.917 15.5423 6.03555 16.3163 6.03555 17.2711C6.03555 18.226 6.917 19 8.00433 19Z" fill="#1D45D7"/>
</svg>
