<svg width="32" height="31" viewBox="0 0 32 31" fill="none" xmlns="http://www.w3.org/2000/svg">
<path d="M1.2844 17.0122H4.20373H4.90373V17.7122V28.4321C4.90373 28.7482 4.968 29.0612 5.09287 29.3533C5.21774 29.6453 5.40077 29.9107 5.6315 30.1342M1.2844 17.0122H27.8076H27.1076V17.7122V28.4321M1.2844 17.0122C1.03186 17.0126 0.784806 16.9408 0.574242 16.8057C0.363678 16.6706 0.198982 16.4783 0.100818 16.2529C0.00265494 16.0275 -0.0246032 15.779 0.0224642 15.5387C0.0695316 15.2983 0.188828 15.0767 0.365385 14.9018M1.2844 17.0122L31.6346 14.9018M5.6315 30.1342C5.86223 30.3577 6.13615 30.535 6.43761 30.656C6.73907 30.777 7.06218 30.8392 7.38848 30.8392H11.9076V30.1392M5.6315 30.1342L6.11856 29.6314C6.28333 29.7911 6.48014 29.9188 6.69829 30.0064C6.91648 30.0939 7.15107 30.1392 7.38848 30.1392H11.9076M5.6315 30.1342L6.11856 29.6314C5.95383 29.4719 5.82439 29.2836 5.73651 29.0781C5.64865 28.8726 5.60373 28.6532 5.60373 28.4321V17.0122C5.60373 16.6256 5.29033 16.3122 4.90373 16.3122H1.2844L1.28318 16.3122C1.16368 16.3124 1.04849 16.2783 0.952198 16.2165C0.856128 16.1549 0.784404 16.0694 0.742603 15.9734C0.700919 15.8777 0.689756 15.7736 0.709418 15.6732C0.729078 15.5728 0.779413 15.4772 0.857676 15.3995L0.857217 15.3999L0.365385 14.9018M11.9076 30.1392H12.6076V23.596C12.6076 23.1062 12.8084 22.6365 13.1659 22.2903M11.9076 30.1392V23.596C11.9076 22.9133 12.1877 22.2632 12.6788 21.7875L13.1659 22.2903M13.1659 22.2903C13.5233 21.944 14.0082 21.7494 14.5137 21.7494H17.4863C17.9918 21.7494 18.4767 21.944 18.8341 22.2903C19.1916 22.6365 19.3924 23.1062 19.3924 23.596V30.1392H20.0924M13.1659 22.2903L12.6788 21.7875C13.1691 21.3125 13.8296 21.0494 14.5137 21.0494H17.4863C18.1704 21.0494 18.8309 21.3125 19.3212 21.7875C19.8123 22.2632 20.0924 22.9133 20.0924 23.596V30.1392M20.0924 30.1392V30.8392H24.6115C25.2716 30.8392 25.9047 30.586 26.3725 30.1349C26.8403 29.6838 27.1046 29.0715 27.1076 28.4321M20.0924 30.1392H24.6115C25.0935 30.1392 25.5516 29.9541 25.8866 29.631C26.2205 29.309 26.4051 28.8769 26.4076 28.4303M27.1076 28.4321L26.4076 28.4289C26.4076 28.4293 26.4076 28.4298 26.4076 28.4303M27.1076 28.4321H26.4076V28.4303M26.4076 28.4303V17.0122C26.4076 16.6256 26.721 16.3122 27.1076 16.3122H30.7156H30.7168C30.8363 16.3124 30.9515 16.2783 31.0478 16.2165C31.1439 16.1549 31.2156 16.0694 31.2574 15.9734C31.2991 15.8777 31.3102 15.7736 31.2906 15.6732C31.2709 15.5729 31.2207 15.4773 31.1425 15.3997L31.1428 15.3999L31.6346 14.9018M0.365385 14.9018L0.858059 15.3991L15.5705 0.871706L15.081 0.371304M0.365385 14.9018L15.081 0.371304M15.081 0.371304L15.5728 0.869401L15.5714 0.8708C15.6254 0.818208 15.6908 0.775298 15.7644 0.745575C15.8384 0.715667 15.9185 0.7 16 0.7C16.0815 0.7 16.1616 0.715667 16.2356 0.745575C16.3092 0.775287 16.3745 0.818175 16.4285 0.87074L16.4272 0.869401L16.919 0.371304M15.081 0.371304C15.2012 0.253662 15.3444 0.160277 15.5021 0.0965455C15.6599 0.032814 15.8291 0 16 0C16.1709 0 16.3401 0.032814 16.4979 0.0965455C16.6556 0.160277 16.7987 0.253662 16.919 0.371304M16.919 0.371304L16.4295 0.871708L31.1419 15.3991L31.6346 14.9018M16.919 0.371304L31.6346 14.9018" stroke="#1D45D7" stroke-width="1.4" stroke-linecap="round" stroke-linejoin="round"/>
</svg>
