<svg width="28" height="25" viewBox="0 0 28 25" fill="none" xmlns="http://www.w3.org/2000/svg">
<path d="M13.9993 23.8913L2.682 12.3942L2.68109 12.3933C2.05379 11.7584 1.55553 11.0035 1.21538 10.1716C0.875225 9.33975 0.7 8.44757 0.7 7.54629C0.7 6.64501 0.875225 5.75282 1.21538 4.92095C1.55553 4.08909 2.05379 3.33421 2.68109 2.69929L2.68113 2.69925C3.94707 1.41773 5.65981 0.7 7.44319 0.7C9.22598 0.7 10.9382 1.41725 12.204 2.69796C12.2044 2.69839 12.2048 2.69882 12.2053 2.69925L13.4986 4.02231L13.9972 4.53239L14.4978 4.02427L15.8032 2.69925C15.8034 2.69907 15.8036 2.69889 15.8037 2.69872C17.0696 1.41753 18.7821 0.7 20.5653 0.7C22.3483 0.7 24.0608 1.41748 25.3267 2.69857C26.5892 3.98381 27.3 5.72691 27.3 7.54629C27.3 9.36566 26.5892 11.1087 25.3267 12.394C25.3266 12.394 25.3266 12.394 25.3266 12.3941C25.3264 12.3943 25.3262 12.3945 25.326 12.3946L24.0206 13.7197L13.9993 23.8913Z" stroke="#1D45D7" stroke-width="1.4"/>
</svg>
